<svg id="Layer_1" data-name="Layer 1" xmlns="http://www.w3.org/2000/svg" xmlns:xlink="http://www.w3.org/1999/xlink" viewBox="0 0 18 18"><defs><style>.cls-1{fill:url(#linear-gradient);}.cls-2{fill:#5ea0ef;}.cls-3{fill:url(#linear-gradient-2);}.cls-4,.cls-5,.cls-6,.cls-8{fill:#fff;}.cls-4{opacity:0.8;}.cls-4,.cls-5,.cls-6,.cls-9{isolation:isolate;}.cls-5{opacity:0.4;}.cls-6{opacity:0.6;}.cls-7{fill:#f78d1e;}.cls-9{fill:#50e6ff;opacity:0.3;}</style><linearGradient id="linear-gradient" x1="8.21" y1="129.43" x2="8.21" y2="114.57" gradientTransform="matrix(1, 0, 0, -1, 0, 131.65)" gradientUnits="userSpaceOnUse"><stop offset="0" stop-color="#5ea0ef"/><stop offset="1" stop-color="#0078d4"/></linearGradient><linearGradient id="linear-gradient-2" x1="8.2" y1="0.67" x2="8.22" y2="3.18" gradientTransform="matrix(1, 0, 0, 1, 0, 0)" xlink:href="#linear-gradient"/></defs><rect class="cls-1" x="1.28" y="2.22" width="13.87" height="14.86" rx="0.57"/><rect class="cls-2" x="2.14" y="3.13" width="12.18" height="13.05" rx="0.57"/><path class="cls-3" d="M9.29,1.19A1.09,1.09,0,1,0,7.11,1v.19H5a.47.47,0,0,0-.47.47h0v2H11.9v-2a.47.47,0,0,0-.47-.47H9.29ZM8.05.66A.56.56,0,0,1,8.73,1a.77.77,0,0,1,0,.15h0a.55.55,0,0,1-.55.54.45.45,0,0,1-.2,0A.54.54,0,0,1,7.68,1,.53.53,0,0,1,8.05.66Z"/><rect class="cls-4" x="4.57" y="7.93" width="1.77" height="5.2" rx="0.28"/><path class="cls-5" d="M11.73,7.94V5.66a.28.28,0,0,0-.28-.28h-1.2a.29.29,0,0,0-.29.28V7.94H9.6v4.81a.27.27,0,0,0,.28.28h1.73a.28.28,0,0,0,.28-.28h0V7.94Z"/><path class="cls-6" d="M9,8.3V6.81a.27.27,0,0,0-.28-.28H7.5a.27.27,0,0,0-.28.28V10l-.1.67.48,2.42H8.8a.29.29,0,0,0,.28-.28V8.5A.26.26,0,0,0,9,8.3Z"/><path class="cls-7" d="M13.37,13.73l3.17,3.17a.6.6,0,0,1,0,.86h0l-.06.06a.59.59,0,0,1-.85,0l-3.06-3.05a.62.62,0,0,1,0-.86h0l.18-.18A.44.44,0,0,1,13.37,13.73Z"/><path class="cls-8" d="M10.52,15.05a3.73,3.73,0,1,1,3.73-3.73A3.73,3.73,0,0,1,10.52,15.05Zm0-6.9a3.17,3.17,0,1,0,3.16,3.17h0A3.17,3.17,0,0,0,10.52,8.15Z"/><circle class="cls-9" cx="10.52" cy="11.32" r="3.45"/></svg>